<svg width="26" height="31" viewBox="0 0 26 31" fill="none" xmlns="http://www.w3.org/2000/svg">
<path d="M21.3676 29.2182C19.7106 30.8245 17.9013 30.5709 16.1597 29.81C14.3167 29.0322 12.6258 28.9984 10.6813 29.81C8.24652 30.8584 6.96142 30.554 5.50732 29.2182C-2.74415 20.7131 -1.52673 7.7611 7.84072 7.2876C10.1233 7.406 11.7128 8.5389 13.0485 8.6403C15.0438 8.2345 16.9544 7.0678 19.0849 7.22C21.6382 7.4229 23.5657 8.4374 24.8339 10.2636C19.5584 13.4255 20.8096 20.375 25.6455 22.3195C24.6817 24.8558 23.4305 27.3752 21.3507 29.2351L21.3676 29.2182ZM12.8795 7.1862C12.6258 3.41556 15.6863 0.30436 19.2033 0C19.6937 4.36244 15.2467 7.6089 12.8795 7.1862Z" fill="#5B5C75"/>
</svg>
