<?xml version="1.0" encoding="UTF-8"?><svg id="Capa_1" xmlns="http://www.w3.org/2000/svg" viewBox="0 0 32 32"><defs><style>.cls-1{fill:#2b3984;}</style></defs><circle class="cls-1" cx="13.3" cy="25.8" r="2.7"/><circle class="cls-1" cx="24" cy="25.8" r="2.7"/><path class="cls-1" d="m1.7,5.3h3.8c0,.2,4.6,16.4,4.3,15.4.1.4.5.7.9.7h16.1c.4,0,.7-.3.9-.6l3.6-12.5c0-.3,0-.6-.1-.8-.2-.2-.4-.4-.7-.4H7.9l-.8-2.9c-.1-.4-.5-.7-.9-.7H1.7c-.5,0-.9.4-.9.9s.4.9.9.9h0Zm21.5,12.5h-8.9c-.5,0-.9-.4-.9-.9s.4-.9.9-.9h8.9c.5,0,.9.4.9.9s-.4.9-.9.9Zm-10.7-5.4h12.5c.5,0,.9.4.9.9s-.4.9-.9.9h-12.5c-.5,0-.9-.4-.9-.9s.4-.9.9-.9Z"/></svg>