<svg width="9" height="9" viewBox="0 0 9 9" fill="none" xmlns="http://www.w3.org/2000/svg">
<path d="M7.33539 1.98333L0.977078 8.34163C0.870135 8.44864 0.73402 8.5021 0.56875 8.5021C0.403471 8.5021 0.267356 8.44864 0.160414 8.34163C0.0534711 8.2347 0 8.09864 0 7.93335C0 7.76807 0.0534711 7.63192 0.160414 7.52499L6.51875 1.16666H3.25208C3.0868 1.16666 2.94826 1.11076 2.83645 0.998953C2.72465 0.887154 2.66875 0.748606 2.66875 0.583328C2.66875 0.418058 2.72465 0.27951 2.83645 0.167702C2.94826 0.0559037 3.0868 0 3.25208 0H7.91875C8.08404 0 8.22255 0.0559037 8.33437 0.167702C8.4462 0.27951 8.50211 0.418058 8.50211 0.583328V5.25C8.50211 5.41528 8.4462 5.55382 8.33437 5.66563C8.22255 5.77743 8.08404 5.83333 7.91875 5.83333C7.75346 5.83333 7.61495 5.77743 7.50312 5.66563C7.3913 5.55382 7.33539 5.41528 7.33539 5.25V1.98333Z" fill="#EE744D"/>
</svg>
