<?xml version="1.0" encoding="UTF-8"?><svg id="Capa_1" xmlns="http://www.w3.org/2000/svg" viewBox="0 0 32 32"><defs><style>.cls-1{fill:#2b3984;}</style></defs><path class="cls-1" d="m28.1629,12.0336c.0038-.0292.0038-.0587,0-.0878,0-5.5882-4.8111-10.1357-10.7303-10.1357h-2.865C8.6482,1.81,3.8371,6.3576,3.8371,11.9457c-.0038.0292-.0038.0587,0,.0878-1.1926.3079-2.0262,1.3833-2.0271,2.615v3.3786c0,1.4927,1.2101,2.7029,2.7029,2.7029h1.3514c0,5.2246,4.2354,9.46,9.46,9.46h1.3514c4.4665,0,7.9937-3.0272,8.7437-5.8517.8094-.3479,1.5199-.8912,2.0677-1.5812.4778-.6174.739-1.3749.7433-2.1555,1.1514-.3293,1.9488-1.377,1.9596-2.5745v-3.3786c-.0009-1.2317-.8345-2.3071-2.0271-2.615Zm-4.73,9.2505c.0027,1.2438-.8798,2.3136-2.1015,2.5474-.6921.1275-1.3919.2088-2.0947.2433-.2943-.7877-1.0444-1.312-1.8852-1.3176h-2.615c-.9881-.0185-1.8539.6583-2.0744,1.6217-.2239,1.0969.4838,2.1677,1.5808,2.3916.1336.0273.2695.041.4058.041h2.7029c.857-.0024,1.6199-.5435,1.9055-1.3514,1.132-.0145,2.2614-.1139,3.3786-.2973-1.4009,1.8856-3.6107,2.9981-5.9598,3.0002h-1.3514c-4.1051,0-7.4329-3.3278-7.4329-7.4329v-6.0814h2.0271s1.7906,0,2.0271-2.2501h0c.9015,1.4026,2.4545,2.2504,4.1219,2.2501h7.3653v6.6355Zm2.5812-9.3384c-.6589-3.8983-4.0333-6.7531-7.9869-6.7571h-4.0543c-3.9536.004-7.328,2.8588-7.9869,6.7571h-.7973c0-4.8449,4.2029-8.7843,9.3789-8.7843h2.865c5.176,0,9.3789,3.9394,9.3789,8.7843h-.7973Z"/></svg>