<svg xmlns="http://www.w3.org/2000/svg" width="28.412" height="38.708" viewBox="0 0 28.412 38.708">
  <g id="find-hospital-12" transform="translate(-1868.19 -571.113)">
    <g id="Ellipse_2" data-name="Ellipse 2" transform="translate(1872 575)" fill="#fff" stroke="#454e92" stroke-width="2.5">
      <ellipse cx="10.5" cy="11" rx="10.5" ry="11" stroke="none"/>
      <ellipse cx="10.5" cy="11" rx="9.25" ry="9.75" fill="none"/>
    </g>
    <path id="Path_15928" data-name="Path 15928" d="M155.436,102.828h-1.465s-.267.014-.267-.192V101.1a1.258,1.258,0,1,0-2.516,0v1.442a.288.288,0,0,1-.313.29h-1.42a1.258,1.258,0,0,0,0,2.516h1.459a.248.248,0,0,1,.274.27v1.462a1.258,1.258,0,0,0,2.516,0v-1.482c0-.246.316-.25.316-.25h1.416a1.258,1.258,0,1,0,0-2.516Z" transform="translate(1729.949 482.453)" fill="#454e92"/>
    <path id="Path_15929" data-name="Path 15929" d="M64.709,0A14.222,14.222,0,0,0,50.5,14.206c0,5.993,3.461,12.211,6.365,16.372a48.877,48.877,0,0,0,4.645,5.72c2.316,2.41,2.955,2.41,3.2,2.41s.767,0,3.058-2.413a52.847,52.847,0,0,0,4.655-5.713c2.962-4.19,6.492-10.432,6.492-16.376A14.222,14.222,0,0,0,64.709,0Zm0,24.471A9.973,9.973,0,1,1,74.682,14.5,9.973,9.973,0,0,1,64.709,24.471Z" transform="translate(1817.687 571.113)" fill="#454e92"/>
  </g>
</svg>
