<svg width="25" height="28" viewBox="0 0 25 28" fill="none" xmlns="http://www.w3.org/2000/svg">
<path d="M0.41927 1.37618L13.0441 14.0072L0.513165 26.7546C0.308675 26.4819 0.149576 26.1767 0.0422622 25.8512C-0.0140874 25.4825 -0.0140874 25.1072 0.0422622 24.7386V3.04587C0.00470605 2.46376 0.136154 1.88165 0.417827 1.37618M18.4825 8.49852L14.3615 12.6632L1.88687 0.147124C2.29133 0.00417687 2.72467 -0.0356123 3.1479 0.0321774C3.81237 0.217859 4.44649 0.503756 5.02862 0.876599L16.3187 7.2503C17.0525 7.65262 17.7676 8.07555 18.4825 8.49852ZM14.3629 15.3703L18.4638 19.479L15.491 21.1678L6.42111 26.311C5.66998 26.7339 4.91596 27.1377 4.18216 27.5989C3.86824 27.7986 3.51615 27.9275 3.14945 27.977C2.78275 28.0266 2.40991 27.9957 2.05588 27.8864L14.3629 15.3703ZM24.9943 14.0072C25.0056 14.5226 24.8783 15.0314 24.6262 15.4783C24.3741 15.9251 24.0069 16.293 23.5642 16.5419L20.1755 18.4607L15.7164 14.0072L20.1943 9.47702C21.3427 10.1299 22.4722 10.7827 23.6004 11.3972C24.0505 11.6536 24.4202 12.0348 24.6667 12.4967C24.9132 12.9586 25.0277 13.4823 24.9943 14.0072Z" fill="#5B5C75"/>
</svg>
