<?xml version="1.0" encoding="utf-8"?>
<!-- Generator: Adobe Illustrator 26.4.1, SVG Export Plug-In . SVG Version: 6.00 Build 0)  -->
<svg version="1.1" id="Layer_2_00000034061802122798475540000006778006905849271973_"
	 xmlns="http://www.w3.org/2000/svg" xmlns:xlink="http://www.w3.org/1999/xlink" x="0px" y="0px" viewBox="0 0 287.5 320"
	 style="enable-background:new 0 0 287.5 320;" xml:space="preserve">
<style type="text/css">
	.st0{fill:#434558;}
</style>
<g id="Layer_1-2">
	<g>
		<path class="st0" d="M287.5,159.9c0,37,0,74,0,111c0,24.8-16.2,44.2-40.4,48.5c-2.7,0.5-5.5,0.5-8.2,0.5c-41.9,0-83.8,0-125.8,0
			c-12.1,0-19.8-9.7-16.6-20.5c2-6.7,7.8-11.2,15-11.3c10-0.1,20,0,29.9,0c32.1,0,64.1,0,96.2,0c6.1,0,11.6-1.6,14.8-7
			c1.7-2.9,2.9-6.5,2.9-9.8c0.2-74.1,0.1-148.2,0.1-222.4c0-10.6-6.6-17-17.6-17c-41.6,0-83.1,0-124.6,0c-9,0-15-4.4-17-12.3
			c-2.3-9.3,4.5-18.8,14.1-19.5c1-0.1,2-0.1,3-0.1c41.8,0,83.6-0.1,125.4,0c23.6,0,42.6,15.1,47.6,37.7c0.9,3.9,1.1,7.9,1.1,11.9
			C287.5,86.4,287.5,123.1,287.5,159.9L287.5,159.9z"/>
		<path class="st0" d="M153,175.9c-2.6,0-4,0-5.5,0c-43.4,0-86.8,0-130.3,0C6.7,175.9-0.5,168.7,0,159c0.4-7.9,6.8-14.4,14.7-14.9
			c1.6-0.1,3.2-0.1,4.9-0.1c42.8,0,85.6,0,128.4,0c1.3,0,2.7,0,5.1,0c-1.6-1.6-2.4-2.6-3.3-3.5c-10.9-11-21.9-21.9-32.8-32.9
			c-4.8-4.9-6.4-10.7-4-17.2c2.3-6.2,6.9-9.7,13.4-10.4c5-0.6,9.4,1.2,12.9,4.7c21.3,21.3,42.6,42.5,63.8,63.9
			c6.4,6.5,6.4,16-0.1,22.6c-21.2,21.4-42.4,42.7-63.8,63.9c-6.6,6.6-16.6,6.3-22.8-0.1c-6.1-6.4-6.1-16,0.4-22.6
			c10.9-11,21.9-21.9,32.8-32.9C150.5,178.6,151.4,177.6,153,175.9L153,175.9z"/>
	</g>
</g>
</svg>
