<svg width="1440" height="523" viewBox="0 0 1440 523" fill="none" xmlns="http://www.w3.org/2000/svg">
<path d="M507.197 371.993C507.197 384.272 503.897 395.521 497.367 405.955C490.659 416.247 481.539 424.089 469.686 429.484C457.833 434.771 442.856 437.469 424.864 437.469C393.172 437.469 371.347 431.187 359.068 418.624C347.215 406.345 340.366 390.801 338.662 371.957H394.024C395.16 378.948 397.289 384.236 400.306 388.211C406.303 395.912 414.714 399.78 425.715 399.78C433.984 399.78 440.266 397.935 444.702 393.924C449.138 389.914 451.409 385.372 451.409 380.084C451.409 375.08 449.28 370.68 444.986 366.811C440.834 362.801 431.003 359.11 415.601 355.668C390.333 349.812 372.518 342.111 361.659 332.423C350.799 322.735 345.405 310.456 345.405 295.48C345.405 285.649 348.244 276.352 353.816 267.515C359.245 258.82 367.656 251.971 378.8 246.967C389.943 241.963 405.203 239.408 424.473 239.408C448.322 239.408 466.421 243.986 478.842 253.107C491.405 262.227 498.822 276.494 501.093 296.332H446.157C444.737 289.482 441.863 284.336 437.888 280.929C433.31 277.061 426.887 275.074 418.76 275.074C412.052 275.074 407.049 276.493 403.642 279.51C400.377 282.349 398.638 285.933 398.638 290.086C398.638 293.209 400.057 295.941 402.79 298.354C405.487 300.909 411.91 303.216 422.06 305.345C447.186 311.059 465.285 316.631 476.145 322.344C487.004 328.058 494.847 335.191 499.851 343.602C504.855 352.013 507.268 361.453 507.268 371.993H507.197Z" fill="#173172"/>
<path d="M521.639 239.441H690.529V288.167H633.889V436.721H578.314V288.167H521.639V239.441Z" fill="#173172"/>
<path d="M803.46 406.413H742.42L733.229 436.72H676.482L744.053 239.263H804.667L872.237 436.72H814.036L803.389 406.413H803.46ZM793.595 361.449L773.756 290.472L754.131 361.449H793.63H793.595Z" fill="#173172"/>
<path d="M894.799 436.723V239.408H987.282C1004.42 239.408 1017.52 241.005 1026.6 244.27C1035.65 247.5 1042.96 253.462 1048.54 262.227C1054.07 270.993 1056.84 281.639 1056.84 294.202C1056.84 305.133 1054.71 314.572 1050.49 322.522C1046.23 330.471 1040.41 336.895 1032.96 341.827C1028.2 344.95 1021.74 347.541 1013.47 349.635C1020.07 352.048 1024.9 354.497 1027.92 356.91C1029.94 358.507 1032.92 361.985 1036.79 367.273C1040.66 372.596 1043.25 376.677 1044.56 379.516L1071.43 436.688H1008.72L979.049 376.393C975.287 368.586 971.951 363.511 969.005 361.169C964.995 358.117 960.488 356.591 955.413 356.591H950.516V436.688H894.799V436.723ZM950.587 322.273H974.009C976.529 322.273 981.462 321.386 988.737 319.612C992.428 318.831 995.444 316.808 997.751 313.543C1000.09 310.278 1001.26 306.517 1001.26 302.294C1001.26 296.048 999.419 291.221 995.728 287.885C992.037 284.514 985.153 282.881 975.003 282.881H950.587V322.309V322.273Z" fill="#173172"/>
<path d="M465.534 519.588C465.534 519.907 465.392 520.156 465.25 520.404C465.108 520.617 464.789 520.794 464.363 520.936C463.937 521.114 463.405 521.185 462.659 521.291C461.95 521.362 461.062 521.398 459.962 521.398C458.862 521.398 458.01 521.398 457.301 521.291C456.591 521.22 456.023 521.114 455.633 520.936C455.207 520.794 454.923 520.617 454.71 520.404C454.532 520.156 454.426 519.907 454.426 519.588V496.982H434.02V519.588C434.02 519.907 433.914 520.156 433.736 520.404C433.559 520.617 433.275 520.794 432.849 520.936C432.458 521.114 431.891 521.185 431.145 521.291C430.471 521.362 429.548 521.398 428.448 521.398C427.419 521.398 426.496 521.398 425.787 521.291C425.077 521.185 424.509 521.114 424.083 520.936C423.657 520.794 423.373 520.617 423.161 520.404C423.019 520.156 422.912 519.907 422.912 519.588V466.746C422.912 466.426 422.983 466.213 423.161 466C423.373 465.752 423.657 465.575 424.083 465.433C424.509 465.255 425.077 465.184 425.787 465.078C426.496 464.971 427.419 464.971 428.448 464.971C429.548 464.971 430.471 464.971 431.145 465.078C431.855 465.184 432.458 465.291 432.849 465.433C433.275 465.575 433.559 465.752 433.736 466C433.914 466.213 434.02 466.462 434.02 466.746V487.293H454.426V466.746C454.426 466.426 454.497 466.213 454.71 466C454.887 465.752 455.171 465.575 455.633 465.433C456.058 465.255 456.591 465.184 457.301 465.078C458.01 464.971 458.933 464.971 459.962 464.971C461.062 464.971 461.95 464.971 462.659 465.078C463.369 465.184 463.937 465.291 464.363 465.433C464.789 465.575 465.108 465.752 465.25 466C465.427 466.213 465.534 466.462 465.534 466.746V519.588Z" fill="#173172"/>
<path d="M515.078 499.035C515.078 500.313 514.794 501.271 514.191 501.91C513.623 502.548 512.807 502.832 511.813 502.832H488.923C488.923 504.429 489.101 505.849 489.491 507.162C489.846 508.475 490.449 509.611 491.301 510.533C492.153 511.421 493.182 512.13 494.566 512.627C495.844 513.088 497.405 513.337 499.215 513.337C501.131 513.337 502.728 513.195 504.148 512.947C505.567 512.663 506.774 512.379 507.768 512.024C508.832 511.705 509.684 511.456 510.358 511.172C510.997 510.888 511.529 510.746 511.955 510.746C512.204 510.746 512.452 510.817 512.594 510.924C512.772 510.995 512.878 511.208 513.02 511.456C513.126 511.704 513.197 512.024 513.233 512.521C513.268 512.982 513.304 513.585 513.304 514.295C513.304 514.934 513.304 515.466 513.268 515.892C513.233 516.318 513.197 516.673 513.127 516.992C513.091 517.312 512.985 517.56 512.878 517.773C512.807 517.986 512.594 518.199 512.452 518.412C512.275 518.625 511.778 518.909 510.962 519.193C510.181 519.512 509.081 519.831 507.839 520.186C506.561 520.506 505.106 520.79 503.474 521.002C501.841 521.251 500.102 521.393 498.221 521.393C494.921 521.393 491.94 520.967 489.456 520.115C486.936 519.264 484.842 517.986 483.139 516.247C481.435 514.544 480.193 512.379 479.377 509.717C478.525 507.126 478.135 504.039 478.135 500.561C478.135 497.083 478.561 494.173 479.483 491.476C480.3 488.779 481.577 486.543 483.245 484.627C484.913 482.746 486.936 481.362 489.278 480.333C491.691 479.375 494.353 478.842 497.37 478.842C500.386 478.842 503.19 479.339 505.425 480.226C507.697 481.184 509.507 482.462 510.962 484.13C512.417 485.798 513.446 487.714 514.12 489.986C514.794 492.221 515.149 494.67 515.149 497.332V499.035H515.078ZM504.751 495.983C504.822 492.967 504.219 490.624 502.977 488.956C501.664 487.218 499.712 486.401 497.05 486.401C495.702 486.401 494.53 486.65 493.501 487.147C492.508 487.679 491.656 488.318 491.017 489.205C490.378 490.092 489.811 491.086 489.491 492.257C489.136 493.428 488.923 494.67 488.888 495.983H504.751Z" fill="#173172"/>
<path d="M559.371 519.125C559.371 519.516 559.229 519.799 558.945 520.048C558.625 520.296 558.199 520.438 557.596 520.545C557.028 520.616 556.07 520.651 554.97 520.651C553.657 520.651 552.734 520.651 552.166 520.545C551.563 520.438 551.173 520.261 550.924 520.048C550.676 519.799 550.534 519.516 550.534 519.125V516.144C549.008 517.777 547.233 519.125 545.282 520.012C543.259 520.935 541.058 521.396 538.681 521.396C536.658 521.396 534.812 521.113 533.18 520.616C531.512 520.119 530.057 519.303 528.85 518.273C527.644 517.28 526.65 516.002 526.047 514.441C525.337 512.95 525.018 511.14 525.018 509.117C525.018 506.917 525.408 505.036 526.295 503.404C527.147 501.771 528.424 500.458 530.128 499.394C531.831 498.294 533.961 497.548 536.48 497.016C539 496.519 541.981 496.271 545.282 496.271H548.972V493.964C548.972 492.793 548.83 491.728 548.618 490.876C548.405 489.989 548.014 489.244 547.446 488.641C546.914 488.073 546.169 487.612 545.282 487.328C544.359 487.044 543.223 486.902 541.875 486.902C540.065 486.902 538.503 487.115 537.119 487.505C535.735 487.895 534.493 488.321 533.428 488.818C532.399 489.315 531.476 489.741 530.767 490.131C530.057 490.522 529.454 490.699 528.992 490.699C528.708 490.699 528.425 490.593 528.176 490.415C527.963 490.238 527.75 489.918 527.608 489.563C527.466 489.209 527.324 488.747 527.253 488.215C527.147 487.682 527.111 487.079 527.111 486.405C527.111 485.553 527.182 484.879 527.289 484.347C527.466 483.85 527.715 483.388 528.105 482.963C528.531 482.572 529.205 482.111 530.199 481.65C531.122 481.153 532.293 480.691 533.677 480.265C534.99 479.84 536.445 479.485 538.006 479.201C539.532 478.952 541.165 478.775 542.833 478.775C545.778 478.775 548.298 479.094 550.427 479.627C552.486 480.23 554.225 481.117 555.573 482.288C556.957 483.495 557.915 485.021 558.519 486.937C559.158 488.818 559.441 491.054 559.441 493.645V518.983L559.371 519.125ZM548.937 502.943H544.891C543.188 502.943 541.697 503.084 540.491 503.297C539.284 503.581 538.326 503.936 537.581 504.469C536.8 504.965 536.232 505.604 535.913 506.314C535.558 507.024 535.38 507.84 535.38 508.763C535.38 510.36 535.877 511.566 536.871 512.489C537.864 513.376 539.249 513.837 541.023 513.837C542.478 513.837 543.897 513.483 545.104 512.702C546.346 511.921 547.624 510.821 548.937 509.366V502.907V502.943Z" fill="#173172"/>
<path d="M584.067 519.8C584.067 520.049 583.996 520.297 583.854 520.51C583.676 520.723 583.357 520.865 582.931 521.007C582.541 521.113 582.008 521.255 581.334 521.326C580.66 521.362 579.808 521.397 578.779 521.397C577.75 521.397 576.863 521.397 576.188 521.326C575.479 521.255 574.982 521.149 574.556 521.007C574.166 520.865 573.882 520.723 573.669 520.51C573.527 520.297 573.385 520.049 573.385 519.8V466.461C573.385 466.213 573.527 465.964 573.669 465.751C573.882 465.538 574.166 465.361 574.556 465.184C574.982 465.042 575.479 464.935 576.188 464.829C576.827 464.758 577.714 464.722 578.779 464.722C579.844 464.722 580.66 464.722 581.334 464.829C582.008 464.9 582.541 465.042 582.931 465.184C583.357 465.361 583.676 465.538 583.854 465.751C583.996 465.964 584.067 466.213 584.067 466.461V519.8Z" fill="#173172"/>
<path d="M620.454 515.399C620.454 516.783 620.383 517.812 620.241 518.522C620.099 519.267 619.886 519.8 619.602 520.084C619.354 520.368 618.963 520.652 618.502 520.9C618.005 521.077 617.437 521.326 616.763 521.468C616.089 521.645 615.379 521.787 614.633 521.858C613.853 521.965 613.037 522 612.256 522C610.197 522 608.352 521.681 606.791 521.113C605.265 520.545 603.987 519.622 602.958 518.38C601.964 517.174 601.219 515.612 600.757 513.731C600.261 511.886 600.048 509.65 600.048 507.13V485.802H595.541C594.973 485.802 594.618 485.447 594.299 484.737C594.015 483.992 593.908 482.785 593.908 481.082C593.908 480.195 593.908 479.379 594.015 478.775C594.086 478.172 594.157 477.675 594.299 477.285C594.441 476.965 594.618 476.717 594.831 476.504C595.044 476.362 595.292 476.291 595.612 476.291H600.048V467.029C600.048 466.745 600.119 466.425 600.261 466.177C600.403 465.928 600.687 465.751 601.077 465.538C601.503 465.396 602.071 465.254 602.745 465.219C603.455 465.148 604.306 465.112 605.336 465.112C606.365 465.112 607.216 465.112 607.926 465.219C608.636 465.29 609.168 465.396 609.559 465.538C609.949 465.751 610.233 465.964 610.375 466.177C610.552 466.425 610.659 466.745 610.659 467.029V476.291H618.857C619.105 476.291 619.354 476.398 619.566 476.504C619.779 476.681 619.957 476.93 620.099 477.285C620.241 477.675 620.312 478.136 620.383 478.775C620.454 479.379 620.525 480.195 620.525 481.082C620.525 482.785 620.383 483.957 620.099 484.737C619.815 485.447 619.424 485.802 618.857 485.802H610.659V505.356C610.659 507.663 610.943 509.331 611.617 510.431C612.291 511.566 613.427 512.17 615.095 512.17C615.663 512.17 616.124 512.099 616.585 512.028C617.047 511.886 617.437 511.815 617.792 511.637C618.182 511.496 618.466 511.389 618.679 511.247C618.928 511.141 619.176 511.07 619.318 511.07C619.566 511.07 619.673 511.141 619.815 511.247C620.028 511.389 620.099 511.567 620.205 511.886C620.276 512.241 620.347 512.631 620.418 513.199C620.489 513.767 620.56 514.512 620.56 515.364" fill="#173172"/>
<path d="M667.575 519.799C667.575 520.048 667.504 520.296 667.291 520.509C667.149 520.722 666.866 520.864 666.475 521.006C666.049 521.112 665.517 521.254 664.843 521.325C664.133 521.361 663.317 521.396 662.288 521.396C661.258 521.396 660.407 521.396 659.697 521.325C658.987 521.254 658.455 521.148 658.064 521.006C657.709 520.864 657.39 520.722 657.213 520.509C657.071 520.296 656.964 520.048 656.964 519.799V499.216C656.964 497.442 656.822 496.128 656.538 495.099C656.29 494.106 655.9 493.254 655.367 492.509C654.835 491.799 654.232 491.267 653.415 490.876C652.635 490.486 651.676 490.273 650.612 490.273C649.263 490.273 647.915 490.77 646.495 491.692C645.147 492.615 643.692 493.999 642.201 495.809V519.764C642.201 520.012 642.094 520.261 641.953 520.473C641.811 520.686 641.491 520.828 641.065 520.97C640.71 521.077 640.143 521.219 639.468 521.29C638.794 521.325 637.907 521.361 636.878 521.361C635.849 521.361 634.961 521.361 634.323 521.29C633.648 521.219 633.08 521.112 632.69 520.97C632.264 520.828 632.016 520.686 631.838 520.473C631.696 520.261 631.59 520.012 631.59 519.764V466.602C631.59 466.354 631.696 466.105 631.838 465.892C632.016 465.68 632.264 465.502 632.69 465.325C633.116 465.183 633.648 465.076 634.323 464.97C634.961 464.899 635.849 464.863 636.878 464.863C637.907 464.863 638.794 464.863 639.468 464.97C640.107 465.041 640.71 465.183 641.065 465.325C641.491 465.502 641.811 465.68 641.953 465.892C642.094 466.105 642.201 466.354 642.201 466.602V486.547C644.046 484.843 645.892 483.53 647.773 482.678C649.653 481.827 651.641 481.401 653.699 481.401C656.29 481.401 658.455 481.827 660.194 482.643C661.933 483.459 663.352 484.559 664.452 485.979C665.517 487.398 666.298 488.995 666.759 490.912C667.185 492.793 667.469 495.064 667.469 497.69V519.799H667.575Z" fill="#173172"/>
<path d="M715.834 519.44C715.834 519.724 715.763 520.008 715.551 520.221C715.338 520.433 715.054 520.611 714.663 520.753C714.237 520.895 713.705 521.001 712.924 521.072C712.25 521.179 711.327 521.214 710.263 521.214C709.234 521.214 708.311 521.214 707.601 521.072C706.891 521.001 706.288 520.859 705.898 520.753C705.472 520.611 705.188 520.433 704.975 520.221C704.833 519.972 704.727 519.724 704.727 519.44V466.882C704.727 466.562 704.798 466.314 704.975 466.101C705.188 465.852 705.472 465.675 705.933 465.497C706.359 465.356 706.927 465.249 707.637 465.178C708.382 465.072 709.234 465.036 710.298 465.036C711.398 465.036 712.321 465.036 712.96 465.178C713.705 465.249 714.273 465.356 714.699 465.497C715.125 465.675 715.409 465.852 715.586 466.101C715.799 466.314 715.87 466.562 715.87 466.882V519.44H715.834Z" fill="#173172"/>
<path d="M766.552 519.725C766.552 520.009 766.481 520.257 766.339 520.47C766.126 520.683 765.843 520.86 765.488 521.038C765.097 521.144 764.565 521.286 763.855 521.357C763.145 521.428 762.294 521.428 761.3 521.428C760.306 521.428 759.455 521.428 758.709 521.357C758.071 521.286 757.503 521.144 757.112 521.038C756.758 520.896 756.438 520.683 756.261 520.47C756.083 520.257 756.048 520.009 756.048 519.725V497.793C756.048 495.948 755.87 494.457 755.657 493.393C755.374 492.363 755.019 491.441 754.451 490.695C753.954 489.95 753.28 489.347 752.499 488.956C751.718 488.531 750.76 488.318 749.695 488.318C748.347 488.318 746.963 488.779 745.614 489.773C744.23 490.802 742.811 492.257 741.284 494.173V519.725C741.284 520.009 741.214 520.257 741.001 520.47C740.859 520.683 740.61 520.86 740.184 521.038C739.794 521.144 739.226 521.286 738.587 521.357C737.913 521.428 737.026 521.428 735.997 521.428C734.968 521.428 734.116 521.428 733.442 521.357C732.767 521.286 732.235 521.144 731.845 521.038C731.419 520.896 731.099 520.683 730.957 520.47C730.815 520.257 730.709 520.009 730.709 519.725V481.326C730.709 481.042 730.815 480.83 730.922 480.581C731.064 480.368 731.312 480.191 731.667 480.013C732.022 479.871 732.483 479.765 733.122 479.729C733.655 479.659 734.364 479.588 735.252 479.588C736.139 479.588 736.919 479.659 737.487 479.729C738.091 479.765 738.516 479.871 738.871 480.013C739.191 480.191 739.439 480.333 739.546 480.581C739.723 480.83 739.759 481.042 739.759 481.326V485.762C741.852 483.491 743.946 481.788 746.111 480.581C748.276 479.446 750.512 478.842 752.854 478.842C755.373 478.842 757.574 479.304 759.313 480.155C761.123 481.007 762.507 482.178 763.607 483.669C764.671 485.159 765.452 486.898 765.914 488.85C766.41 490.837 766.623 493.215 766.623 495.983V519.689L766.552 519.725Z" fill="#173172"/>
<path d="M806.972 508.336C806.972 510.465 806.582 512.346 805.766 513.978C804.949 515.611 803.814 516.959 802.359 518.059C800.904 519.159 799.165 520.011 797.177 520.544C795.155 521.111 792.99 521.36 790.683 521.36C789.299 521.36 787.915 521.253 786.637 521.04C785.324 520.827 784.224 520.544 783.195 520.224C782.201 519.905 781.314 519.585 780.64 519.266C779.965 518.911 779.469 518.592 779.185 518.343C778.901 518.024 778.652 517.562 778.475 516.924C778.333 516.285 778.227 515.327 778.227 514.12C778.227 513.268 778.227 512.63 778.333 512.168C778.333 511.671 778.475 511.246 778.581 510.962C778.652 510.678 778.83 510.465 779.007 510.394C779.185 510.287 779.398 510.252 779.646 510.252C780.001 510.252 780.427 510.429 781.03 510.749C781.633 511.104 782.379 511.494 783.301 511.92C784.224 512.346 785.253 512.736 786.424 513.091C787.631 513.446 788.98 513.623 790.541 513.623C791.464 513.623 792.351 513.552 793.025 513.339C793.806 513.162 794.48 512.878 795.013 512.488C795.545 512.133 795.971 511.707 796.255 511.104C796.539 510.536 796.681 509.897 796.681 509.152C796.681 508.3 796.397 507.59 795.864 506.987C795.368 506.384 794.658 505.851 793.806 505.39C792.954 504.964 791.961 504.538 790.932 504.112C789.831 503.687 788.696 503.261 787.56 502.799C786.389 502.338 785.324 501.735 784.224 501.131C783.159 500.493 782.166 499.747 781.314 498.825C780.427 497.937 779.753 496.873 779.22 495.56C778.723 494.282 778.439 492.792 778.439 491.017C778.439 489.243 778.794 487.539 779.504 486.049C780.214 484.558 781.208 483.245 782.556 482.181C783.834 481.081 785.466 480.264 787.383 479.661C789.299 479.058 791.393 478.738 793.806 478.738C794.942 478.738 796.113 478.845 797.213 479.022C798.349 479.2 799.342 479.377 800.229 479.661C801.117 479.909 801.897 480.193 802.501 480.477C803.14 480.761 803.53 481.045 803.814 481.258C804.062 481.471 804.275 481.684 804.382 481.897C804.524 482.11 804.559 482.323 804.63 482.642C804.701 482.926 804.736 483.281 804.807 483.742C804.843 484.168 804.843 484.7 804.843 485.375C804.843 486.12 804.843 486.723 804.807 487.22C804.736 487.681 804.701 488.072 804.559 488.356C804.488 488.639 804.346 488.781 804.169 488.923C804.027 488.994 803.814 489.03 803.601 489.03C803.317 489.03 802.962 488.923 802.43 488.604C801.897 488.285 801.223 488.001 800.407 487.61C799.626 487.291 798.668 486.972 797.639 486.688C796.574 486.404 795.368 486.226 793.983 486.226C793.061 486.226 792.209 486.333 791.499 486.51C790.789 486.723 790.222 486.972 789.76 487.362C789.334 487.717 788.98 488.143 788.767 488.64C788.518 489.136 788.412 489.669 788.412 490.236C788.412 491.124 788.696 491.833 789.193 492.437C789.76 493.005 790.435 493.537 791.286 493.998C792.174 494.46 793.167 494.885 794.267 495.24C795.367 495.631 796.503 496.092 797.639 496.518C798.81 497.015 799.91 497.547 801.046 498.15C802.146 498.789 803.104 499.57 803.991 500.457C804.843 501.344 805.588 502.409 806.085 503.687C806.617 504.929 806.901 506.419 806.901 508.158" fill="#173172"/>
<path d="M854.141 519.656C854.141 519.94 854.07 520.188 853.928 520.401C853.786 520.614 853.537 520.791 853.182 520.933C852.828 521.04 852.366 521.182 851.798 521.253C851.231 521.324 850.485 521.324 849.634 521.324C848.675 521.324 847.93 521.324 847.398 521.253C846.794 521.182 846.333 521.04 846.014 520.933C845.659 520.791 845.446 520.578 845.304 520.401C845.162 520.188 845.091 519.94 845.091 519.656V514.51C842.997 516.781 840.903 518.485 838.739 519.656C836.574 520.791 834.338 521.395 832.031 521.395C829.441 521.395 827.276 520.969 825.537 520.082C823.763 519.265 822.343 518.059 821.314 516.604C820.178 515.078 819.433 513.374 818.972 511.422C818.51 509.47 818.262 507.022 818.262 504.147V480.76C818.262 480.477 818.333 480.264 818.51 480.015C818.652 479.802 818.936 479.625 819.326 479.483C819.717 479.341 820.285 479.234 820.959 479.199C821.669 479.128 822.52 479.057 823.514 479.057C824.508 479.057 825.395 479.128 826.105 479.199C826.743 479.234 827.347 479.341 827.737 479.483C828.163 479.66 828.411 479.802 828.589 480.015C828.802 480.264 828.873 480.477 828.873 480.76V502.337C828.873 504.36 829.015 505.851 829.263 506.915C829.512 507.98 829.902 508.867 830.434 509.612C830.931 510.393 831.605 510.926 832.422 511.351C833.202 511.777 834.161 511.955 835.225 511.955C836.538 511.955 837.922 511.493 839.271 510.464C840.655 509.506 842.075 507.98 843.636 506.099V480.725C843.636 480.441 843.742 480.228 843.884 479.98C844.026 479.767 844.31 479.589 844.701 479.447C845.127 479.305 845.659 479.199 846.333 479.163C847.007 479.092 847.859 479.021 848.888 479.021C849.918 479.021 850.769 479.092 851.479 479.163C852.189 479.199 852.686 479.305 853.076 479.447C853.431 479.625 853.75 479.767 853.892 479.98C854.105 480.228 854.176 480.441 854.176 480.725V519.656H854.141Z" fill="#173172"/>
<path d="M892.462 484.875C892.462 485.904 892.462 486.756 892.391 487.43C892.32 488.069 892.249 488.566 892.107 488.956C892.001 489.347 891.859 489.595 891.681 489.737C891.504 489.879 891.291 489.915 890.972 489.915C890.759 489.915 890.51 489.915 890.262 489.773C889.943 489.702 889.659 489.56 889.304 489.453C888.949 489.347 888.558 489.24 888.133 489.169C887.742 489.063 887.281 489.027 886.749 489.027C886.181 489.027 885.578 489.134 884.974 489.382C884.442 489.631 883.803 490.021 883.164 490.518C882.49 491.05 881.851 491.725 881.177 492.576C880.467 493.428 879.722 494.493 878.977 495.735V519.618C878.977 519.902 878.835 520.186 878.693 520.364C878.551 520.576 878.231 520.789 877.805 520.931C877.38 521.038 876.883 521.18 876.209 521.251C875.499 521.322 874.647 521.322 873.618 521.322C872.589 521.322 871.737 521.322 871.063 521.251C870.388 521.18 869.821 521.038 869.43 520.931C869.004 520.789 868.756 520.576 868.578 520.364C868.436 520.186 868.33 519.902 868.33 519.618V480.723C868.33 480.439 868.401 480.191 868.543 479.978C868.649 479.765 868.933 479.623 869.288 479.446C869.643 479.304 870.14 479.197 870.708 479.126C871.276 479.055 872.021 479.02 872.873 479.02C873.724 479.02 874.505 479.055 875.108 479.126C875.676 479.197 876.138 479.304 876.492 479.446C876.776 479.623 877.025 479.765 877.131 479.978C877.309 480.226 877.344 480.439 877.344 480.723V486.082C878.302 484.662 879.26 483.456 880.148 482.533C880.999 481.61 881.816 480.865 882.632 480.333C883.413 479.765 884.193 479.375 885.01 479.197C885.79 478.949 886.571 478.842 887.352 478.842C887.707 478.842 888.097 478.878 888.523 478.913C888.949 478.913 889.41 479.02 889.836 479.126C890.297 479.197 890.688 479.375 891.007 479.481C891.327 479.588 891.575 479.73 891.717 479.871C891.894 479.978 891.965 480.191 892.072 480.333C892.143 480.51 892.214 480.759 892.249 481.078C892.32 481.362 892.356 481.788 892.391 482.427C892.427 483.065 892.391 483.846 892.391 484.875" fill="#173172"/>
<path d="M932.675 519.83C932.675 520.221 932.568 520.54 932.284 520.753C932.001 520.966 931.539 521.143 930.971 521.25C930.404 521.356 929.445 521.392 928.274 521.392C927.103 521.392 926.109 521.392 925.542 521.25C924.974 521.179 924.548 521.001 924.3 520.753C924.051 520.54 923.945 520.221 923.945 519.83V516.14C922.383 517.808 920.644 519.085 918.692 520.008C916.67 520.93 914.505 521.427 912.091 521.427C910.104 521.427 908.259 521.179 906.555 520.611C904.887 520.114 903.468 519.298 902.226 518.304C900.984 517.311 900.025 515.998 899.351 514.472C898.677 512.946 898.357 511.207 898.357 509.148C898.357 506.948 898.819 505.032 899.67 503.435C900.522 501.802 901.835 500.489 903.503 499.424C905.207 498.36 907.336 497.579 909.856 497.082C912.375 496.585 915.356 496.337 918.692 496.337H922.348V494.066C922.348 492.859 922.206 491.83 921.993 490.943C921.744 490.056 921.354 489.275 920.822 488.707C920.254 488.139 919.509 487.678 918.621 487.394C917.699 487.11 916.563 487.004 915.214 487.004C913.44 487.004 911.843 487.181 910.459 487.571C909.075 487.962 907.833 488.388 906.733 488.884C905.668 489.346 904.781 489.772 904.071 490.197C903.361 490.588 902.758 490.801 902.297 490.801C902.013 490.801 901.729 490.694 901.48 490.517C901.267 490.304 901.055 490.02 900.913 489.665C900.771 489.31 900.629 488.849 900.593 488.317C900.487 487.784 900.451 487.181 900.451 486.542C900.451 485.655 900.522 484.981 900.664 484.484C900.806 483.987 901.09 483.49 901.48 483.1C901.871 482.709 902.581 482.248 903.539 481.787C904.532 481.29 905.704 480.793 907.017 480.403C908.33 479.977 909.749 479.658 911.346 479.374C912.943 479.125 914.505 478.948 916.173 478.948C919.118 478.948 921.638 479.267 923.767 479.87C925.861 480.438 927.6 481.325 928.913 482.497C930.262 483.703 931.255 485.229 931.859 487.11C932.497 489.026 932.781 491.262 932.781 493.853V519.901L932.675 519.83ZM922.277 502.973H918.231C916.528 502.973 915.037 503.08 913.866 503.364C912.624 503.612 911.666 503.967 910.92 504.499C910.14 504.996 909.572 505.635 909.217 506.345C908.862 507.055 908.685 507.871 908.685 508.793C908.685 510.39 909.217 511.597 910.211 512.52C911.204 513.407 912.588 513.868 914.363 513.868C915.853 513.868 917.237 513.478 918.479 512.733C919.757 511.952 920.999 510.852 922.312 509.397V502.973H922.277Z" fill="#173172"/>
<path d="M982.754 519.756C982.754 520.04 982.683 520.289 982.47 520.502C982.328 520.714 982.044 520.892 981.654 521.069C981.299 521.176 980.731 521.318 980.057 521.389C979.383 521.46 978.495 521.46 977.537 521.46C976.437 521.46 975.585 521.46 974.911 521.389C974.201 521.318 973.669 521.176 973.278 521.069C972.888 520.927 972.604 520.714 972.427 520.502C972.285 520.289 972.178 520.04 972.178 519.756V497.825C972.178 495.979 972.036 494.489 971.788 493.424C971.504 492.395 971.149 491.472 970.652 490.727C970.12 489.982 969.481 489.378 968.665 488.988C967.849 488.562 966.926 488.349 965.861 488.349C964.548 488.349 963.2 488.81 961.816 489.804C960.396 490.833 958.941 492.288 957.486 494.205V519.756C957.486 520.04 957.38 520.289 957.238 520.502C957.096 520.714 956.741 520.892 956.386 521.069C955.96 521.176 955.428 521.318 954.753 521.389C954.079 521.46 953.227 521.46 952.198 521.46C951.169 521.46 950.282 521.46 949.608 521.389C948.933 521.318 948.366 521.176 947.975 521.069C947.549 520.927 947.265 520.714 947.123 520.502C946.946 520.289 946.875 520.04 946.875 519.756V480.719C946.875 480.435 946.946 480.222 947.088 479.974C947.194 479.761 947.443 479.584 947.833 479.406C948.188 479.264 948.649 479.158 949.253 479.122C949.821 479.051 950.566 478.98 951.418 478.98C952.269 478.98 953.05 479.051 953.653 479.122C954.257 479.158 954.683 479.3 955.037 479.406C955.321 479.584 955.57 479.725 955.676 479.974C955.854 480.222 955.889 480.435 955.889 480.719V485.723C957.983 483.452 960.112 481.748 962.242 480.542C964.406 479.406 966.678 478.803 968.984 478.803C971.504 478.803 973.704 479.264 975.443 480.116C977.182 480.968 978.602 482.139 979.702 483.629C980.802 485.12 981.547 486.859 982.044 488.81C982.505 490.798 982.754 493.211 982.754 495.979V519.721V519.756Z" fill="#173172"/>
<path d="M1025.15 512.981C1025.15 513.691 1025.15 514.365 1025.08 514.826C1025.08 515.323 1024.97 515.714 1024.94 516.069C1024.86 516.423 1024.79 516.707 1024.69 516.885C1024.58 517.098 1024.37 517.382 1024.05 517.736C1023.69 518.02 1023.13 518.446 1022.31 518.908C1021.53 519.369 1020.61 519.759 1019.58 520.15C1018.51 520.505 1017.38 520.788 1016.17 521.037C1014.93 521.25 1013.65 521.356 1012.41 521.356C1009.5 521.356 1006.94 520.93 1004.67 520.008C1002.44 519.121 1000.56 517.772 999.029 516.033C997.539 514.259 996.403 512.129 995.622 509.61C994.877 507.054 994.451 504.18 994.451 500.915C994.451 497.082 994.913 493.853 995.835 491.12C996.793 488.388 998.107 486.081 999.81 484.271C1001.48 482.461 1003.5 481.113 1005.77 480.261C1008.15 479.374 1010.63 478.948 1013.44 478.948C1014.54 478.948 1015.64 479.054 1016.7 479.232C1017.8 479.409 1018.8 479.693 1019.75 480.012C1020.68 480.367 1021.53 480.722 1022.27 481.184C1023.02 481.574 1023.59 481.964 1023.87 482.284C1024.16 482.568 1024.37 482.851 1024.55 483.029C1024.62 483.242 1024.72 483.526 1024.79 483.845C1024.9 484.2 1024.94 484.626 1024.97 485.123C1024.97 485.584 1025.04 486.223 1025.04 486.897C1025.04 488.565 1024.9 489.665 1024.62 490.339C1024.33 491.014 1023.98 491.333 1023.55 491.333C1023.05 491.333 1022.56 491.156 1022.03 490.765C1021.46 490.339 1020.82 489.914 1020.11 489.452C1019.4 488.955 1018.48 488.53 1017.48 488.175C1016.49 487.749 1015.25 487.571 1013.86 487.571C1011.1 487.571 1009 488.601 1007.55 490.765C1006.09 492.895 1005.35 495.982 1005.35 500.099C1005.35 502.122 1005.56 503.932 1005.91 505.458C1006.27 507.019 1006.84 508.332 1007.55 509.361C1008.26 510.426 1009.14 511.207 1010.24 511.739C1011.31 512.236 1012.59 512.52 1014.04 512.52C1015.5 512.52 1016.7 512.271 1017.8 511.881C1018.87 511.42 1019.75 510.958 1020.54 510.39C1021.32 509.858 1021.99 509.397 1022.52 508.935C1023.05 508.509 1023.48 508.297 1023.91 508.297C1024.12 508.297 1024.37 508.368 1024.55 508.509C1024.69 508.651 1024.83 508.935 1024.94 509.29C1025.01 509.645 1025.11 510.142 1025.18 510.745C1025.26 511.349 1025.26 512.129 1025.26 513.052" fill="#173172"/>
<path d="M1071.36 499.039C1071.36 500.352 1071.12 501.31 1070.51 501.913C1069.95 502.552 1069.13 502.872 1068.1 502.872H1045C1045 504.468 1045.14 505.888 1045.53 507.237C1045.96 508.55 1046.56 509.65 1047.37 510.573C1048.23 511.46 1049.29 512.169 1050.6 512.631C1051.95 513.128 1053.51 513.341 1055.36 513.341C1057.2 513.341 1058.84 513.234 1060.26 512.95C1061.68 512.666 1062.92 512.382 1063.95 512.028C1065.01 511.744 1065.86 511.424 1066.54 511.176C1067.25 510.892 1067.78 510.785 1068.21 510.785C1068.42 510.785 1068.67 510.821 1068.88 510.927C1069.02 511.034 1069.13 511.176 1069.27 511.424C1069.38 511.673 1069.48 512.028 1069.48 512.524C1069.55 512.986 1069.55 513.589 1069.55 514.299C1069.55 514.902 1069.55 515.399 1069.55 515.896C1069.52 516.322 1069.48 516.677 1069.41 516.996C1069.38 517.28 1069.27 517.564 1069.16 517.777C1069.06 517.954 1068.92 518.167 1068.7 518.38C1068.53 518.557 1068.03 518.841 1067.21 519.161C1066.4 519.516 1065.37 519.835 1064.05 520.154C1062.78 520.438 1061.36 520.722 1059.69 521.006C1058.02 521.255 1056.25 521.361 1054.4 521.361C1051.03 521.361 1048.08 520.935 1045.53 520.083C1042.97 519.267 1040.88 517.99 1039.18 516.251C1037.44 514.512 1036.2 512.347 1035.34 509.685C1034.53 507.095 1034.07 504.007 1034.07 500.529C1034.07 497.051 1034.53 494.141 1035.38 491.444C1036.27 488.747 1037.54 486.476 1039.21 484.595C1040.88 482.714 1042.97 481.295 1045.32 480.301C1047.73 479.307 1050.43 478.775 1053.44 478.775C1056.46 478.775 1059.3 479.272 1061.57 480.195C1063.84 481.117 1065.69 482.43 1067.11 484.027C1068.56 485.695 1069.63 487.647 1070.26 489.918C1070.97 492.154 1071.29 494.603 1071.29 497.264V498.968L1071.36 499.039ZM1060.75 495.987C1060.9 493.006 1060.26 490.664 1058.98 488.925C1057.67 487.221 1055.71 486.369 1053.02 486.369C1051.7 486.369 1050.53 486.653 1049.5 487.15C1048.51 487.647 1047.69 488.357 1047.02 489.173C1046.38 490.025 1045.85 491.054 1045.49 492.225C1045.14 493.396 1044.96 494.674 1044.89 495.987H1060.72H1060.75Z" fill="#173172"/>
<path d="M264.851 0L176.804 173.432L0 195.647L115.196 327.664L87.3373 520.294L249.2 437.11L380.366 521.253L394.881 507.554L248.81 395.73L125.984 459.68L157.995 318.579L69.9479 217.898L199.091 200.367L263.822 75.1288L338.49 219.815L352.579 205.619L264.851 0Z" fill="#173172"/>
</svg>
